inDegrees=no
num_controls=7
num_derivatives=13
num_iterations=192
num_multipliers=7
num_parameters=0
num_slacks=7
num_states=26
objective=5.641040
objective_accelerations=0.425071
objective_balance=0.049746
objective_effort=0.398958
objective_height=4.648522
objective_ligament=0.118742
solver_duration=1941.291103
status=Solve_Succeeded
success=true
DataType=double
version=3
OpenSimVersion=4.4-2022-07-23-0e9fedc
endheader
time	/jointset/ground_pelvis/pelvis_tilt/value	/jointset/ground_pelvis/pelvis_tx/value	/jointset/ground_pelvis/pelvis_ty/value	/jointset/hip_l/hip_flexion_l/value	/jointset/hip_l/hip_adduction_l/value	/jointset/hip_l/hip_rotation_l/value	/jointset/back/lumbar_extension/value	/jointset/patellofemoral_l/patellar_flexion_l/value	/jointset/knee_l/knee_flexion_l/value	/jointset/knee_l/knee_adduction_l/value	/jointset/knee_l/knee_rotation_l/value	/jointset/ankle_l/ankle_angle_l/value	/jointset/subtalar_l/subtalar_angle_l/value	/jointset/ground_pelvis/pelvis_tilt/speed	/jointset/ground_pelvis/pelvis_tx/speed	/jointset/ground_pelvis/pelvis_ty/speed	/jointset/hip_l/hip_flexion_l/speed	/jointset/hip_l/hip_adduction_l/speed	/jointset/hip_l/hip_rotation_l/speed	/jointset/back/lumbar_extension/speed	/jointset/patellofemoral_l/patellar_flexion_l/speed	/jointset/knee_l/knee_flexion_l/speed	/jointset/knee_l/knee_adduction_l/speed	/jointset/knee_l/knee_rotation_l/speed	/jointset/ankle_l/ankle_angle_l/speed	/jointset/subtalar_l/subtalar_angle_l/speed	/forceset/tau_hip_flexion_l	/forceset/tau_hip_adduction_l	/forceset/tau_hip_rotation_l	/forceset/tau_knee_flexion_l	/forceset/tau_ankle_angle_l	/forceset/tau_subtalar_angle_l	/forceset/tau_lumbar_extension	lambda_cid13_p0	lambda_cid13_p1	lambda_cid13_p2	lambda_cid13_p3	lambda_cid13_p4	lambda_cid13_p5	lambda_cid14_p0	/jointset/ground_pelvis/pelvis_tilt/accel	/jointset/ground_pelvis/pelvis_tx/accel	/jointset/ground_pelvis/pelvis_ty/accel	/jointset/hip_l/hip_flexion_l/accel	/jointset/hip_l/hip_adduction_l/accel	/jointset/hip_l/hip_rotation_l/accel	/jointset/back/lumbar_extension/accel	/jointset/patellofemoral_l/patellar_flexion_l/accel	/jointset/knee_l/knee_flexion_l/accel	/jointset/knee_l/knee_adduction_l/accel	/jointset/knee_l/knee_rotation_l/accel	/jointset/ankle_l/ankle_angle_l/accel	/jointset/subtalar_l/subtalar_angle_l/accel	gamma_cid13_p0	gamma_cid13_p1	gamma_cid13_p2	gamma_cid13_p3	gamma_cid13_p4	gamma_cid13_p5	gamma_cid14_p0
0.5	-0.0239989185392621	-0.002854191316166397	0.8361039791268965	0.7513554409435325	-0.3294193280264235	-0.1020050375883879	-0.7715355722626629	0.8605990797364427	0.8605990797364388	-0.106486141909371	-0.1745231786337764	0.1955304625101019	0.03151973120556411	0.05869837581350072	-0.08682161034255996	-0.3128318143471945	1.119202458531372	-0.05189311209453297	0.5076457222484595	-0.8479385495281957	1.625755017257655	1.625755017257557	0.1304699136206943	0.0002393134079585658	0.5601050650469135	0.1464954825007964	-0.2178140542532311	0.02757637875010175	-0.004922806236561245	-0.24592720960587	0.03492949663560916	0.04584126656715566	0.2944015561349344	-32.40747574699301	-16.87083242124856	5.24663576646229	-3.793614607999228	-700.1295017810158	-79.46699019558032	-12.17246856677517	0.1205816115460398	0.4632382079269989	-0.171629716019956	-1.230363917474118	0.2230263606227635	-0.4415388298896568	1.590428123562269	-1.289246390417763	-1.289246390417686	-0.2924200733873988	0.0006544515321485053	-0.252484904718024	0.2642361083415155	-1.816330018321434e-07	-2.094996538737191e-07	1.082012067031206e-06	7.125961706505023e-08	-2.040683365029099e-07	-3.758497552715376e-07	-1.486086047161641e-07
0.51	-0.02340610790192576	-0.003699217863773005	0.832967803996032	0.7624841688770981	-0.3299277003110887	-0.09695015267417517	-0.7799343538141122	0.876789447371635	0.8767894473716223	-0.1051980116727079	-0.1745206541904271	0.2011177434253767	0.03299680692010803	0.05985297626813502	-0.08218132344694917	-0.3143275187575063	1.106371219167253	-0.04978638179015586	0.5032607100434613	-0.8317189002810257	1.612067194427457	1.612067194427476	0.1271508518348793	0.0002565552968274003	0.557264445067272	0.1488880881570226	-0.2222506350075294	0.02824667810348572	-0.005095153961015048	-0.2495486128862265	0.03257984368987361	0.04605980996407123	0.2994746258638207	-33.35106262947412	-16.77554293557618	5.202901478806092	-3.493601958171132	-703.7766217080579	-79.45770887037308	-11.53639135677013	0.1112661287971686	0.4647960707915851	-0.1272266358148368	-1.335312030487486	0.2035826500200775	-0.4477066828517183	1.652562397074792	-1.446218724855148	-1.446218724837461	-0.3524308631644956	0.001111937589008511	-0.3128540908880291	0.2219324171125444	-1.711273172601611e-07	-1.283429480673787e-07	1.06779819532118e-06	7.845704277877794e-08	-1.909515297304092e-07	-3.231447502755508e-07	-1.39571165975139e-07
0.52	-0.02280207788677008	-0.004497767114340634	0.8298189346546084	0.773479422800106	-0.3304151880357579	-0.09194126273544209	-0.7881679730587353	0.892835403079413	0.8928354030794053	-0.1039432283802947	-0.1745181867521694	0.2066740174315965	0.03449684061578472	0.06094225137779059	-0.07752615093476417	-0.3153706564589763	1.092507656418878	-0.04771620009878031	0.4984467271565908	-0.8149060881626355	1.59687263177588	1.596872631776017	0.1238005247696269	0.0002279123866902921	0.5539036832355954	0.1510870787272241	-0.2266872157618187	0.02891697745685401	-0.005267501685336545	-0.2531700161665892	0.0302301907441313	0.04627835336096801	0.3045476955927167	-34.29654373911224	-16.68035739104945	5.159682576400329	-3.232604091905363	-707.4810218834409	-79.49085130525505	-10.89822018670782	0.1075165425500825	0.4662153312420835	-0.08111637425156289	-1.436828594325173	0.2157166380223554	-0.5273329662641867	1.709060697806168	-1.590594354693564	-1.590594354693479	-0.2986731292749692	-0.008522508269161854	-0.3565132751247914	0.2255130911366084	-1.583643415486373e-07	-8.934710179520537e-08	1.01890785286126e-06	7.756241537221587e-08	-1.747653711066491e-07	-2.800052779559066e-07	-1.305487791466795e-07
0.53	-0.02218743872940651	-0.005249758010032574	0.8266618957939189	0.7843310594142421	-0.3308821019392835	-0.08698252901335578	-0.7962306268531487	0.9087221437492117	0.9087221437492318	-0.1027219758845773	-0.1745161325437868	0.2121941796471534	0.03601797489306834	0.06198017345990996	-0.07287616121743827	-0.3159612021595578	1.077658940580064	-0.04567318211012467	0.4932423186213839	-0.79753943998145	1.580244074443575	1.58024407444353	0.1204433747891513	0.0001805514585519994	0.5500471842798728	0.1531064807970431	-0.2311124366193789	0.02975178464657284	-0.005395342519568667	-0.2565231984355157	0.02744952699539223	0.04633211276305691	0.3095278506760207	-35.38394427930636	-16.47827771208946	5.087450694107421	-2.774583703935465	-711.0729782453244	-79.32899444624107	-10.25986347501953	0.1011041367133453	0.4637862590476766	-0.0366698927024305	-1.533021187661406	0.1974540948939082	-0.5257714374485501	1.763251488713995	-1.733675421967665	-1.733675421994862	-0.3552105708516205	-0.003010844991865665	-0.4124540274697056	0.1850537552069351	-1.453862026620611e-07	-3.755820505804734e-08	9.757493253307356e-07	7.877429561279132e-08	-1.595917057402966e-07	-2.32184969589972e-07	-1.209717162326831e-07
0.54	-0.02156258553208673	-0.005955369915137297	0.8235012222312753	0.7950293832482005	-0.3313288137197796	-0.08207759470469173	-0.8041170572436632	0.9244356610458193	0.9244356610458212	-0.1015344898164572	-0.1745145855365606	0.2176733297088234	0.03755828318911155	0.06298505936885021	-0.06825035281732086	-0.3160975968497972	1.061845100381175	-0.04367577549721886	0.4876868444742115	-0.77966140738269	1.562227957132521	1.562227957132295	0.1170472392719824	0.0001264721341839758	0.5457012524572007	0.1549218824789613	-0.2355376574768967	0.03058659183633229	-0.005523183354508788	-0.2598763807044101	0.02466886324666739	0.04638587216521222	0.3145080057593497	-36.47416285039289	-16.27540323510346	5.014748916677823	-2.35024507690174	-714.7299668163243	-79.20581757348845	-9.623208638681012	0.1009093079140235	0.4613790678006098	0.009713827816876795	-1.629853466340075	0.2065943628722712	-0.5975460886573326	1.811337581320963	-1.868106350443156	-1.868106350443115	-0.3064702366136893	-0.009866187515127956	-0.4543998485143751	0.1847130135565515	-1.321700109009591e-07	2.838470495951942e-08	9.389323802752858e-07	8.231678005871041e-08	-1.45538245680012e-07	-1.791858638962267e-07	-1.107809691389437e-07
0.55	-0.02092789200250932	-0.006614856910055203	0.8203414613748198	0.8055649023638886	-0.3317556850824049	-0.07722987687492726	-0.8118222176373927	0.9399622718388191	0.9399622718388203	-0.1003809861852414	-0.1745134624592005	0.2231067132823384	0.03911587163923114	0.06394658115250018	-0.06365204833923238	-0.3157774479654341	1.045104946840706	-0.04170446360793065	0.4817979965790749	-0.7612949378016924	1.542875939242879	1.542875939242786	0.1136552250420383	9.738468889177402e-05	0.5409035895860222	0.1565655186879842	-0.2396761885405503	0.03121460806385645	-0.005616276311962131	-0.263470174568982	0.02218819589975234	0.04639031074691811	0.3192516071084364	-37.46628471076647	-16.06270592860051	4.934107715058055	-1.967413468978747	-718.306645112903	-79.10803599534839	-8.989951777049336	0.09270059630685083	0.4583226623151511	0.05470681565798121	-1.719179894211899	0.1913549419613216	-0.5934627674152571	1.860661680339567	-2.001467797603863	-2.00146779758379	-0.3552771746505455	0.0006336089566267114	-0.5032242527373425	0.1495273530491602	-1.225054588723508e-07	4.479947104052818e-08	8.958282940587626e-07	7.972131581809834e-08	-1.342724055520613e-07	-1.510286499963616e-07	-1.044150983989453e-07
0.5600000000000001	-0.0202837978585468	-0.00722850755529173	0.81718721028659	0.8159284032249193	-0.3321630522581095	-0.07244282924965648	-0.8193414413285425	0.9552888187950558	0.9552888187950416	-0.09926134472805326	-0.1745126175298581	0.2284899652778779	0.04068896413713682	0.0648651822448227	-0.0590830828810452	-0.3149956432046078	1.027441449447785	-0.03977493811846038	0.4755528035850047	-0.7424740668666725	1.522215189778069	1.52221518977811	0.1102748044734641	7.08425233167557e-05	0.5356749368621312	0.1580226920359662	-0.2438147196042124	0.03184262429131168	-0.005709369269440214	-0.2670639684335626	0.01970752855281318	0.04639474932852874	0.323995208457532	-38.46205647618162	-15.84895018953777	4.852819775689383	-1.614855572803661	-721.9574333869407	-79.04589145910019	-8.361634430417981	0.09232516964830705	0.4555112638205757	0.1020450031095527	-1.81452223683027	0.198237082908638	-0.6688151084440682	1.902217852125337	-2.129852665476681	-2.12985266547642	-0.3041515043397394	-0.009357131571664882	-0.540597819056596	0.1474204413484902	-1.171028745227348e-07	1.780464397669299e-09	8.451796384489516e-07	6.97603131536491e-08	-1.26351709342911e-07	-1.526817062491515e-07	-1.026390792834358e-07
0.5700000000000001	-0.0196307272769176	-0.007796670444792957	0.8140430891123583	0.8261107603978607	-0.3325513288920516	-0.06772020956141911	-0.8266703694684904	0.9704023369871788	0.9704023369871728	-0.09817525866337244	-0.1745121823496862	0.2338187939162429	0.04227568720702117	0.06574044600827132	-0.05455978913096654	-0.3137515349676638	1.008888123955877	-0.0378862679305135	0.4689137913495485	-0.7232515294456668	1.500280492987878	1.500280492987981	0.1069484075433401	1.828066976378777e-05	0.530019841968721	0.1592902361157948	-0.2477165586599246	0.0324713609975622	-0.005764571280965397	-0.2706411675347523	0.01715851935236423	0.04628612148744929	0.3284717218819348	-39.47824601602421	-15.57274197817674	4.750411484789227	-1.155229214369188	-725.4421293597119	-78.89050952517127	-7.740682901179174	0.08384233852732727	0.4492071396007183	0.1471278609025052	-1.897031635924783	0.1831735900081553	-0.6701411733894644	1.941276438277552	-2.256451208032627	-2.256451208023476	-0.3459732127598993	-0.002735826285953486	-0.5886052821116762	0.1115760684594866	-1.094454643823884e-07	-1.329210682201136e-08	7.950465036927075e-07	6.291973695804804e-08	-1.166413652662735e-07	-1.408749277949985e-07	-9.837047433521507e-08
0.58	-0.01896916098587889	-0.008319906654993665	0.8109137158458792	0.8361033255297851	-0.3329209205034322	-0.06306571937403171	-0.8338052712839906	0.9852902736069715	0.9852902736069407	-0.09712225445316192	-0.174512178810804	0.2390889436141507	0.04387411665313706	0.06656432412509133	-0.0500977470209415	-0.3120460616540972	0.989483041241821	-0.03603793361175341	0.461926903422384	-0.7036688019770797	1.477098875307991	1.477098875308155	0.1036584335967812	-1.54857453451312e-05	0.5239391487701729	0.1603639672820021	-0.2516183977156289	0.03310009770379151	-0.005819773292975622	-0.2742183666359316	0.01460951015191026	0.04617749364634854	0.3329482353063484	-40.49814493842957	-15.29713895056633	4.649533639259555	-0.7251807060844854	-728.9961098747387	-78.77155699010241	-7.143701260737416	0.08204804032233191	0.4432609358100655	0.1943180184340964	-1.984873681259866	0.1901699090712096	-0.7383902467857475	1.974255861641498	-2.379236843415921	-2.379236843415932	-0.2968669076267487	-0.005598043882816105	-0.6257174800838781	0.108657858624357	-9.885153693318409e-08	8.030679718724659e-09	7.455847449318069e-07	6.014297197769102e-08	-1.046003169901178e-07	-1.115390622806419e-07	-9.085571109323092e-08
